<?xml version="1.0" encoding="utf-8" standalone="no"?>
<!DOCTYPE svg PUBLIC "-//W3C//DTD SVG 1.1//EN"
  "http://www.w3.org/Graphics/SVG/1.1/DTD/svg11.dtd">
<svg xmlns:xlink="http://www.w3.org/1999/xlink" width="460.8pt" height="345.6pt" viewBox="0 0 460.8 345.6" xmlns="http://www.w3.org/2000/svg" version="1.1">
 <metadata>
  <rdf:RDF xmlns:dc="http://purl.org/dc/elements/1.1/" xmlns:cc="http://creativecommons.org/ns#" xmlns:rdf="http://www.w3.org/1999/02/22-rdf-syntax-ns#">
   <cc:Work>
    <dc:type rdf:resource="http://purl.org/dc/dcmitype/StillImage"/>
    <dc:date>2022-12-09T22:14:35.147677</dc:date>
    <dc:format>image/svg+xml</dc:format>
    <dc:creator>
     <cc:Agent>
      <dc:title>Matplotlib v3.6.2, https://matplotlib.org/</dc:title>
     </cc:Agent>
    </dc:creator>
   </cc:Work>
  </rdf:RDF>
 </metadata>
 <defs>
  <style type="text/css">*{stroke-linejoin: round; stroke-linecap: butt}</style>
 </defs>
 <g id="figure_1">
  <g id="patch_1">
   <path d="M 0 345.6 
L 460.8 345.6 
L 460.8 0 
L 0 0 
z
" style="fill: #ffffff"/>
  </g>
  <g id="axes_1">
   <g id="patch_2">
    <path d="M 57.6 307.584 
L 414.72 307.584 
L 414.72 41.472 
L 57.6 41.472 
z
" style="fill: #ffffff"/>
   </g>
   <g id="matplotlib.axis_1">
    <g id="xtick_1">
     <g id="line2d_1">
      <defs>
       <path id="m167cb1ebaa" d="M 0 0 
L 0 3.5 
" style="stroke: #000000; stroke-width: 0.8"/>
      </defs>
      <g>
       <use xlink:href="#m167cb1ebaa" x="73.122323" y="307.584" style="stroke: #000000; stroke-width: 0.8"/>
      </g>
     </g>
     <g id="text_1">
      <!-- 0 -->
      <g transform="translate(69.941073 322.182437) scale(0.1 -0.1)">
       <defs>
        <path id="DejaVuSans-30" d="M 2034 4250 
Q 1547 4250 1301 3770 
Q 1056 3291 1056 2328 
Q 1056 1369 1301 889 
Q 1547 409 2034 409 
Q 2525 409 2770 889 
Q 3016 1369 3016 2328 
Q 3016 3291 2770 3770 
Q 2525 4250 2034 4250 
z
M 2034 4750 
Q 2819 4750 3233 4129 
Q 3647 3509 3647 2328 
Q 3647 1150 3233 529 
Q 2819 -91 2034 -91 
Q 1250 -91 836 529 
Q 422 1150 422 2328 
Q 422 3509 836 4129 
Q 1250 4750 2034 4750 
z
" transform="scale(0.015625)"/>
       </defs>
       <use xlink:href="#DejaVuSans-30"/>
      </g>
     </g>
    </g>
    <g id="xtick_2">
     <g id="line2d_2">
      <g>
       <use xlink:href="#m167cb1ebaa" x="144.162705" y="307.584" style="stroke: #000000; stroke-width: 0.8"/>
      </g>
     </g>
     <g id="text_2">
      <!-- 100 -->
      <g transform="translate(134.618955 322.182437) scale(0.1 -0.1)">
       <defs>
        <path id="DejaVuSans-31" d="M 794 531 
L 1825 531 
L 1825 4091 
L 703 3866 
L 703 4441 
L 1819 4666 
L 2450 4666 
L 2450 531 
L 3481 531 
L 3481 0 
L 794 0 
L 794 531 
z
" transform="scale(0.015625)"/>
       </defs>
       <use xlink:href="#DejaVuSans-31"/>
       <use xlink:href="#DejaVuSans-30" x="63.623047"/>
       <use xlink:href="#DejaVuSans-30" x="127.246094"/>
      </g>
     </g>
    </g>
    <g id="xtick_3">
     <g id="line2d_3">
      <g>
       <use xlink:href="#m167cb1ebaa" x="215.203087" y="307.584" style="stroke: #000000; stroke-width: 0.8"/>
      </g>
     </g>
     <g id="text_3">
      <!-- 200 -->
      <g transform="translate(205.659337 322.182437) scale(0.1 -0.1)">
       <defs>
        <path id="DejaVuSans-32" d="M 1228 531 
L 3431 531 
L 3431 0 
L 469 0 
L 469 531 
Q 828 903 1448 1529 
Q 2069 2156 2228 2338 
Q 2531 2678 2651 2914 
Q 2772 3150 2772 3378 
Q 2772 3750 2511 3984 
Q 2250 4219 1831 4219 
Q 1534 4219 1204 4116 
Q 875 4013 500 3803 
L 500 4441 
Q 881 4594 1212 4672 
Q 1544 4750 1819 4750 
Q 2544 4750 2975 4387 
Q 3406 4025 3406 3419 
Q 3406 3131 3298 2873 
Q 3191 2616 2906 2266 
Q 2828 2175 2409 1742 
Q 1991 1309 1228 531 
z
" transform="scale(0.015625)"/>
       </defs>
       <use xlink:href="#DejaVuSans-32"/>
       <use xlink:href="#DejaVuSans-30" x="63.623047"/>
       <use xlink:href="#DejaVuSans-30" x="127.246094"/>
      </g>
     </g>
    </g>
    <g id="xtick_4">
     <g id="line2d_4">
      <g>
       <use xlink:href="#m167cb1ebaa" x="286.243469" y="307.584" style="stroke: #000000; stroke-width: 0.8"/>
      </g>
     </g>
     <g id="text_4">
      <!-- 300 -->
      <g transform="translate(276.699719 322.182437) scale(0.1 -0.1)">
       <defs>
        <path id="DejaVuSans-33" d="M 2597 2516 
Q 3050 2419 3304 2112 
Q 3559 1806 3559 1356 
Q 3559 666 3084 287 
Q 2609 -91 1734 -91 
Q 1441 -91 1130 -33 
Q 819 25 488 141 
L 488 750 
Q 750 597 1062 519 
Q 1375 441 1716 441 
Q 2309 441 2620 675 
Q 2931 909 2931 1356 
Q 2931 1769 2642 2001 
Q 2353 2234 1838 2234 
L 1294 2234 
L 1294 2753 
L 1863 2753 
Q 2328 2753 2575 2939 
Q 2822 3125 2822 3475 
Q 2822 3834 2567 4026 
Q 2313 4219 1838 4219 
Q 1578 4219 1281 4162 
Q 984 4106 628 3988 
L 628 4550 
Q 988 4650 1302 4700 
Q 1616 4750 1894 4750 
Q 2613 4750 3031 4423 
Q 3450 4097 3450 3541 
Q 3450 3153 3228 2886 
Q 3006 2619 2597 2516 
z
" transform="scale(0.015625)"/>
       </defs>
       <use xlink:href="#DejaVuSans-33"/>
       <use xlink:href="#DejaVuSans-30" x="63.623047"/>
       <use xlink:href="#DejaVuSans-30" x="127.246094"/>
      </g>
     </g>
    </g>
    <g id="xtick_5">
     <g id="line2d_5">
      <g>
       <use xlink:href="#m167cb1ebaa" x="357.283851" y="307.584" style="stroke: #000000; stroke-width: 0.8"/>
      </g>
     </g>
     <g id="text_5">
      <!-- 400 -->
      <g transform="translate(347.740101 322.182437) scale(0.1 -0.1)">
       <defs>
        <path id="DejaVuSans-34" d="M 2419 4116 
L 825 1625 
L 2419 1625 
L 2419 4116 
z
M 2253 4666 
L 3047 4666 
L 3047 1625 
L 3713 1625 
L 3713 1100 
L 3047 1100 
L 3047 0 
L 2419 0 
L 2419 1100 
L 313 1100 
L 313 1709 
L 2253 4666 
z
" transform="scale(0.015625)"/>
       </defs>
       <use xlink:href="#DejaVuSans-34"/>
       <use xlink:href="#DejaVuSans-30" x="63.623047"/>
       <use xlink:href="#DejaVuSans-30" x="127.246094"/>
      </g>
     </g>
    </g>
    <g id="text_6">
     <!-- number of iteration -->
     <g transform="translate(187.525625 335.860562) scale(0.1 -0.1)">
      <defs>
       <path id="DejaVuSans-6e" d="M 3513 2113 
L 3513 0 
L 2938 0 
L 2938 2094 
Q 2938 2591 2744 2837 
Q 2550 3084 2163 3084 
Q 1697 3084 1428 2787 
Q 1159 2491 1159 1978 
L 1159 0 
L 581 0 
L 581 3500 
L 1159 3500 
L 1159 2956 
Q 1366 3272 1645 3428 
Q 1925 3584 2291 3584 
Q 2894 3584 3203 3211 
Q 3513 2838 3513 2113 
z
" transform="scale(0.015625)"/>
       <path id="DejaVuSans-75" d="M 544 1381 
L 544 3500 
L 1119 3500 
L 1119 1403 
Q 1119 906 1312 657 
Q 1506 409 1894 409 
Q 2359 409 2629 706 
Q 2900 1003 2900 1516 
L 2900 3500 
L 3475 3500 
L 3475 0 
L 2900 0 
L 2900 538 
Q 2691 219 2414 64 
Q 2138 -91 1772 -91 
Q 1169 -91 856 284 
Q 544 659 544 1381 
z
M 1991 3584 
L 1991 3584 
z
" transform="scale(0.015625)"/>
       <path id="DejaVuSans-6d" d="M 3328 2828 
Q 3544 3216 3844 3400 
Q 4144 3584 4550 3584 
Q 5097 3584 5394 3201 
Q 5691 2819 5691 2113 
L 5691 0 
L 5113 0 
L 5113 2094 
Q 5113 2597 4934 2840 
Q 4756 3084 4391 3084 
Q 3944 3084 3684 2787 
Q 3425 2491 3425 1978 
L 3425 0 
L 2847 0 
L 2847 2094 
Q 2847 2600 2669 2842 
Q 2491 3084 2119 3084 
Q 1678 3084 1418 2786 
Q 1159 2488 1159 1978 
L 1159 0 
L 581 0 
L 581 3500 
L 1159 3500 
L 1159 2956 
Q 1356 3278 1631 3431 
Q 1906 3584 2284 3584 
Q 2666 3584 2933 3390 
Q 3200 3197 3328 2828 
z
" transform="scale(0.015625)"/>
       <path id="DejaVuSans-62" d="M 3116 1747 
Q 3116 2381 2855 2742 
Q 2594 3103 2138 3103 
Q 1681 3103 1420 2742 
Q 1159 2381 1159 1747 
Q 1159 1113 1420 752 
Q 1681 391 2138 391 
Q 2594 391 2855 752 
Q 3116 1113 3116 1747 
z
M 1159 2969 
Q 1341 3281 1617 3432 
Q 1894 3584 2278 3584 
Q 2916 3584 3314 3078 
Q 3713 2572 3713 1747 
Q 3713 922 3314 415 
Q 2916 -91 2278 -91 
Q 1894 -91 1617 61 
Q 1341 213 1159 525 
L 1159 0 
L 581 0 
L 581 4863 
L 1159 4863 
L 1159 2969 
z
" transform="scale(0.015625)"/>
       <path id="DejaVuSans-65" d="M 3597 1894 
L 3597 1613 
L 953 1613 
Q 991 1019 1311 708 
Q 1631 397 2203 397 
Q 2534 397 2845 478 
Q 3156 559 3463 722 
L 3463 178 
Q 3153 47 2828 -22 
Q 2503 -91 2169 -91 
Q 1331 -91 842 396 
Q 353 884 353 1716 
Q 353 2575 817 3079 
Q 1281 3584 2069 3584 
Q 2775 3584 3186 3129 
Q 3597 2675 3597 1894 
z
M 3022 2063 
Q 3016 2534 2758 2815 
Q 2500 3097 2075 3097 
Q 1594 3097 1305 2825 
Q 1016 2553 972 2059 
L 3022 2063 
z
" transform="scale(0.015625)"/>
       <path id="DejaVuSans-72" d="M 2631 2963 
Q 2534 3019 2420 3045 
Q 2306 3072 2169 3072 
Q 1681 3072 1420 2755 
Q 1159 2438 1159 1844 
L 1159 0 
L 581 0 
L 581 3500 
L 1159 3500 
L 1159 2956 
Q 1341 3275 1631 3429 
Q 1922 3584 2338 3584 
Q 2397 3584 2469 3576 
Q 2541 3569 2628 3553 
L 2631 2963 
z
" transform="scale(0.015625)"/>
       <path id="DejaVuSans-20" transform="scale(0.015625)"/>
       <path id="DejaVuSans-6f" d="M 1959 3097 
Q 1497 3097 1228 2736 
Q 959 2375 959 1747 
Q 959 1119 1226 758 
Q 1494 397 1959 397 
Q 2419 397 2687 759 
Q 2956 1122 2956 1747 
Q 2956 2369 2687 2733 
Q 2419 3097 1959 3097 
z
M 1959 3584 
Q 2709 3584 3137 3096 
Q 3566 2609 3566 1747 
Q 3566 888 3137 398 
Q 2709 -91 1959 -91 
Q 1206 -91 779 398 
Q 353 888 353 1747 
Q 353 2609 779 3096 
Q 1206 3584 1959 3584 
z
" transform="scale(0.015625)"/>
       <path id="DejaVuSans-66" d="M 2375 4863 
L 2375 4384 
L 1825 4384 
Q 1516 4384 1395 4259 
Q 1275 4134 1275 3809 
L 1275 3500 
L 2222 3500 
L 2222 3053 
L 1275 3053 
L 1275 0 
L 697 0 
L 697 3053 
L 147 3053 
L 147 3500 
L 697 3500 
L 697 3744 
Q 697 4328 969 4595 
Q 1241 4863 1831 4863 
L 2375 4863 
z
" transform="scale(0.015625)"/>
       <path id="DejaVuSans-69" d="M 603 3500 
L 1178 3500 
L 1178 0 
L 603 0 
L 603 3500 
z
M 603 4863 
L 1178 4863 
L 1178 4134 
L 603 4134 
L 603 4863 
z
" transform="scale(0.015625)"/>
       <path id="DejaVuSans-74" d="M 1172 4494 
L 1172 3500 
L 2356 3500 
L 2356 3053 
L 1172 3053 
L 1172 1153 
Q 1172 725 1289 603 
Q 1406 481 1766 481 
L 2356 481 
L 2356 0 
L 1766 0 
Q 1100 0 847 248 
Q 594 497 594 1153 
L 594 3053 
L 172 3053 
L 172 3500 
L 594 3500 
L 594 4494 
L 1172 4494 
z
" transform="scale(0.015625)"/>
       <path id="DejaVuSans-61" d="M 2194 1759 
Q 1497 1759 1228 1600 
Q 959 1441 959 1056 
Q 959 750 1161 570 
Q 1363 391 1709 391 
Q 2188 391 2477 730 
Q 2766 1069 2766 1631 
L 2766 1759 
L 2194 1759 
z
M 3341 1997 
L 3341 0 
L 2766 0 
L 2766 531 
Q 2569 213 2275 61 
Q 1981 -91 1556 -91 
Q 1019 -91 701 211 
Q 384 513 384 1019 
Q 384 1609 779 1909 
Q 1175 2209 1959 2209 
L 2766 2209 
L 2766 2266 
Q 2766 2663 2505 2880 
Q 2244 3097 1772 3097 
Q 1472 3097 1187 3025 
Q 903 2953 641 2809 
L 641 3341 
Q 956 3463 1253 3523 
Q 1550 3584 1831 3584 
Q 2591 3584 2966 3190 
Q 3341 2797 3341 1997 
z
" transform="scale(0.015625)"/>
      </defs>
      <use xlink:href="#DejaVuSans-6e"/>
      <use xlink:href="#DejaVuSans-75" x="63.378906"/>
      <use xlink:href="#DejaVuSans-6d" x="126.757812"/>
      <use xlink:href="#DejaVuSans-62" x="224.169922"/>
      <use xlink:href="#DejaVuSans-65" x="287.646484"/>
      <use xlink:href="#DejaVuSans-72" x="349.169922"/>
      <use xlink:href="#DejaVuSans-20" x="390.283203"/>
      <use xlink:href="#DejaVuSans-6f" x="422.070312"/>
      <use xlink:href="#DejaVuSans-66" x="483.251953"/>
      <use xlink:href="#DejaVuSans-20" x="518.457031"/>
      <use xlink:href="#DejaVuSans-69" x="550.244141"/>
      <use xlink:href="#DejaVuSans-74" x="578.027344"/>
      <use xlink:href="#DejaVuSans-65" x="617.236328"/>
      <use xlink:href="#DejaVuSans-72" x="678.759766"/>
      <use xlink:href="#DejaVuSans-61" x="719.873047"/>
      <use xlink:href="#DejaVuSans-74" x="781.152344"/>
      <use xlink:href="#DejaVuSans-69" x="820.361328"/>
      <use xlink:href="#DejaVuSans-6f" x="848.144531"/>
      <use xlink:href="#DejaVuSans-6e" x="909.326172"/>
     </g>
    </g>
   </g>
   <g id="matplotlib.axis_2">
    <g id="ytick_1">
     <g id="line2d_6">
      <defs>
       <path id="m25aa118870" d="M 0 0 
L -3.5 0 
" style="stroke: #000000; stroke-width: 0.8"/>
      </defs>
      <g>
       <use xlink:href="#m25aa118870" x="57.6" y="267.507196" style="stroke: #000000; stroke-width: 0.8"/>
      </g>
     </g>
     <g id="text_7">
      <!-- $\mathdefault{10^{-4}}$ -->
      <g transform="translate(27.1 271.306415) scale(0.1 -0.1)">
       <defs>
        <path id="DejaVuSans-2212" d="M 678 2272 
L 4684 2272 
L 4684 1741 
L 678 1741 
L 678 2272 
z
" transform="scale(0.015625)"/>
       </defs>
       <use xlink:href="#DejaVuSans-31" transform="translate(0 0.684375)"/>
       <use xlink:href="#DejaVuSans-30" transform="translate(63.623047 0.684375)"/>
       <use xlink:href="#DejaVuSans-2212" transform="translate(128.203125 38.965625) scale(0.7)"/>
       <use xlink:href="#DejaVuSans-34" transform="translate(186.855469 38.965625) scale(0.7)"/>
      </g>
     </g>
    </g>
    <g id="ytick_2">
     <g id="line2d_7">
      <g>
       <use xlink:href="#m25aa118870" x="57.6" y="214.00485" style="stroke: #000000; stroke-width: 0.8"/>
      </g>
     </g>
     <g id="text_8">
      <!-- $\mathdefault{10^{-2}}$ -->
      <g transform="translate(27.1 217.804068) scale(0.1 -0.1)">
       <use xlink:href="#DejaVuSans-31" transform="translate(0 0.765625)"/>
       <use xlink:href="#DejaVuSans-30" transform="translate(63.623047 0.765625)"/>
       <use xlink:href="#DejaVuSans-2212" transform="translate(128.203125 39.046875) scale(0.7)"/>
       <use xlink:href="#DejaVuSans-32" transform="translate(186.855469 39.046875) scale(0.7)"/>
      </g>
     </g>
    </g>
    <g id="ytick_3">
     <g id="line2d_8">
      <g>
       <use xlink:href="#m25aa118870" x="57.6" y="160.502503" style="stroke: #000000; stroke-width: 0.8"/>
      </g>
     </g>
     <g id="text_9">
      <!-- $\mathdefault{10^{0}}$ -->
      <g transform="translate(33 164.301722) scale(0.1 -0.1)">
       <use xlink:href="#DejaVuSans-31" transform="translate(0 0.765625)"/>
       <use xlink:href="#DejaVuSans-30" transform="translate(63.623047 0.765625)"/>
       <use xlink:href="#DejaVuSans-30" transform="translate(128.203125 39.046875) scale(0.7)"/>
      </g>
     </g>
    </g>
    <g id="ytick_4">
     <g id="line2d_9">
      <g>
       <use xlink:href="#m25aa118870" x="57.6" y="107.000156" style="stroke: #000000; stroke-width: 0.8"/>
      </g>
     </g>
     <g id="text_10">
      <!-- $\mathdefault{10^{2}}$ -->
      <g transform="translate(33 110.799375) scale(0.1 -0.1)">
       <use xlink:href="#DejaVuSans-31" transform="translate(0 0.765625)"/>
       <use xlink:href="#DejaVuSans-30" transform="translate(63.623047 0.765625)"/>
       <use xlink:href="#DejaVuSans-32" transform="translate(128.203125 39.046875) scale(0.7)"/>
      </g>
     </g>
    </g>
    <g id="ytick_5">
     <g id="line2d_10">
      <g>
       <use xlink:href="#m25aa118870" x="57.6" y="53.49781" style="stroke: #000000; stroke-width: 0.8"/>
      </g>
     </g>
     <g id="text_11">
      <!-- $\mathdefault{10^{4}}$ -->
      <g transform="translate(33 57.297028) scale(0.1 -0.1)">
       <use xlink:href="#DejaVuSans-31" transform="translate(0 0.684375)"/>
       <use xlink:href="#DejaVuSans-30" transform="translate(63.623047 0.684375)"/>
       <use xlink:href="#DejaVuSans-34" transform="translate(128.203125 38.965625) scale(0.7)"/>
      </g>
     </g>
    </g>
    <g id="text_12">
     <!-- norm -->
     <g transform="translate(21.020313 187.594406) rotate(-90) scale(0.1 -0.1)">
      <use xlink:href="#DejaVuSans-6e"/>
      <use xlink:href="#DejaVuSans-6f" x="63.378906"/>
      <use xlink:href="#DejaVuSans-72" x="124.560547"/>
      <use xlink:href="#DejaVuSans-6d" x="163.923828"/>
     </g>
    </g>
   </g>
   <g id="line2d_11">
    <path d="M 73.832727 53.568 
L 74.543131 60.200952 
L 75.253535 63.746558 
L 78.09515 69.843822 
L 78.805554 71.18809 
L 80.226362 74.284892 
L 82.357573 78.399007 
L 83.778381 80.13936 
L 84.488785 80.700107 
L 85.909592 81.208331 
L 87.3304 81.66887 
L 88.040804 82.041686 
L 89.461611 83.289812 
L 92.303227 86.329848 
L 93.01363 86.856475 
L 93.724034 87.201236 
L 95.144842 87.431557 
L 97.276053 87.655141 
L 98.696861 88.352696 
L 100.117669 89.476041 
L 101.538476 90.579221 
L 102.24888 91.006429 
L 102.959284 91.286604 
L 104.380092 91.459787 
L 106.511303 91.473486 
L 107.932111 91.896229 
L 109.352918 92.734839 
L 111.48413 94.016748 
L 112.194534 94.269621 
L 113.615341 94.439957 
L 115.746553 94.370922 
L 117.16736 94.628174 
L 118.588168 95.273111 
L 120.719379 96.380302 
L 122.140187 96.753039 
L 123.560995 96.781563 
L 124.981802 96.705996 
L 126.40261 96.854267 
L 127.823418 97.355763 
L 130.665033 98.555406 
L 132.08584 98.758404 
L 135.63786 98.73458 
L 137.058667 99.124362 
L 139.900282 100.202385 
L 141.32109 100.424126 
L 145.583513 100.47864 
L 147.004321 100.898231 
L 149.135532 101.634774 
L 150.55634 101.873234 
L 152.687551 101.81552 
L 154.108359 101.800733 
L 155.529167 102.027583 
L 159.791589 103.154236 
L 161.212397 103.164272 
L 163.343609 103.087308 
L 164.764416 103.253871 
L 166.895628 103.841919 
L 168.316435 104.197687 
L 169.737243 104.342303 
L 173.999666 104.368736 
L 176.130877 104.882133 
L 178.262089 105.338374 
L 179.682896 105.399375 
L 182.524512 105.330638 
L 183.945319 105.503436 
L 188.207742 106.349388 
L 190.338954 106.319007 
L 192.470165 106.337006 
L 194.601377 106.717513 
L 196.732588 107.154725 
L 198.153396 107.26045 
L 202.415819 107.286258 
L 205.257434 107.839038 
L 206.678241 108.041807 
L 208.809453 108.065714 
L 210.940664 108.038384 
L 213.071876 108.307908 
L 216.623895 108.924173 
L 218.044703 109.111949 
L 218.755106 109.291943 
L 219.46551 109.603901 
L 220.175914 110.118963 
L 220.886318 110.915198 
L 221.596722 112.060142 
L 222.307126 113.606611 
L 223.017529 115.589322 
L 223.727933 118.014008 
L 225.148741 124.105346 
L 226.569548 131.593047 
L 229.411164 148.170753 
L 230.121568 151.464558 
L 230.831971 153.693024 
L 231.542375 154.726469 
L 232.252779 155.022098 
L 232.963183 155.556442 
L 233.673587 157.285014 
L 234.38399 160.553451 
L 235.804798 170.282474 
L 237.225606 180.858252 
L 237.93601 185.007234 
L 238.646413 187.438752 
L 239.356817 188.008804 
L 240.067221 187.638448 
L 240.777625 187.751845 
L 241.488029 189.006812 
L 242.198432 190.717906 
L 242.908836 191.663568 
L 243.61924 191.361512 
L 244.329644 190.653214 
L 245.040048 191.013432 
L 245.750452 193.059075 
L 246.460855 195.920578 
L 247.171259 198.169376 
L 247.881663 199.075151 
L 248.592067 199.236856 
L 249.302471 199.930541 
L 250.723278 203.210683 
L 251.433682 203.65762 
L 252.85449 202.274851 
L 253.564894 202.905844 
L 254.275297 204.467572 
L 254.985701 205.66496 
L 256.406509 206.076357 
L 257.116913 207.226509 
L 257.827316 209.205938 
L 258.53772 210.728476 
L 259.248124 211.00853 
L 259.958528 210.707027 
L 260.668932 211.051065 
L 261.379336 212.126328 
L 262.089739 212.831303 
L 262.800143 212.554106 
L 263.510547 212.104978 
L 264.220951 212.65767 
L 264.931355 214.068831 
L 265.641759 215.135684 
L 267.062566 215.582805 
L 267.77297 216.672806 
L 268.483374 218.08754 
L 269.193778 218.686493 
L 269.904181 218.411082 
L 270.614585 218.356836 
L 272.035393 219.852365 
L 272.745797 219.802268 
L 273.456201 219.483372 
L 274.166604 219.970586 
L 274.877008 221.156916 
L 275.587412 221.95228 
L 276.297816 222.043466 
L 277.00822 222.324719 
L 278.429027 224.353905 
L 279.139431 224.500445 
L 279.849835 224.255714 
L 280.560239 224.601816 
L 281.270643 225.388574 
L 281.981046 225.664544 
L 282.69145 225.381005 
L 283.401854 225.516892 
L 284.822662 227.170645 
L 286.243469 227.418462 
L 287.664277 229.131781 
L 288.374681 229.307577 
L 289.085085 229.168036 
L 289.795488 229.572526 
L 290.505892 230.284838 
L 291.216296 230.455054 
L 291.9267 230.212381 
L 292.637104 230.460452 
L 293.347507 231.235688 
L 294.057911 231.673299 
L 294.768315 231.627417 
L 295.478719 231.911656 
L 296.189123 232.745837 
L 296.899527 233.318129 
L 297.60993 233.297947 
L 298.320334 233.417358 
L 299.030738 234.068499 
L 299.741142 234.555428 
L 301.161949 234.433321 
L 302.582757 235.506115 
L 304.003565 235.529227 
L 305.424372 236.742847 
L 306.84518 236.873882 
L 308.265988 238.007181 
L 309.686795 238.020989 
L 311.107603 238.990106 
L 312.528411 238.958201 
L 313.949218 239.93016 
L 315.370026 240.005887 
L 316.790833 241.039376 
L 318.211641 241.17116 
L 319.632449 242.116278 
L 320.342853 242.072419 
L 321.053256 242.158391 
L 321.76366 242.643058 
L 322.474064 242.937765 
L 323.184468 242.846312 
L 323.894872 242.980886 
L 324.605276 243.49248 
L 325.315679 243.771378 
L 326.026083 243.743629 
L 326.736487 244.017053 
L 327.446891 244.584097 
L 328.157295 244.830911 
L 328.867698 244.821206 
L 329.578102 245.131886 
L 330.288506 245.605651 
L 330.99891 245.689464 
L 331.709314 245.614148 
L 333.130121 246.277249 
L 334.550929 246.292845 
L 335.971737 247.118612 
L 336.68214 247.176949 
L 337.392544 247.350856 
L 338.102948 247.859476 
L 338.813352 248.176957 
L 339.523756 248.156018 
L 340.23416 248.320932 
L 340.944563 248.711736 
L 341.654967 248.809795 
L 342.365371 248.69795 
L 343.075775 248.903144 
L 343.786179 249.269181 
L 345.206986 249.386435 
L 346.627794 250.227777 
L 348.048602 250.484061 
L 348.759005 250.91894 
L 349.469409 251.158879 
L 350.179813 251.089604 
L 350.890217 251.198696 
L 351.600621 251.503115 
L 352.311024 251.549581 
L 353.021428 251.470961 
L 355.15264 252.191566 
L 355.863044 252.330972 
L 357.283851 253.136591 
L 357.994255 253.187356 
L 358.704659 253.354853 
L 359.415063 253.703227 
L 360.125466 253.794117 
L 360.83587 253.699963 
L 361.546274 253.870594 
L 362.256678 254.159272 
L 363.677486 254.359975 
L 366.519101 256.415661 
L 367.939908 258.182773 
L 368.650312 258.97717 
L 371.491928 263.754537 
L 372.912735 266.304639 
L 373.623139 266.944236 
L 374.333543 267.3012 
L 375.043947 267.283571 
L 375.754351 266.457728 
L 377.175158 263.204472 
L 377.885562 261.218847 
L 379.30637 256.645363 
L 380.727177 253.437507 
L 381.437581 252.12191 
L 382.147985 251.197178 
L 382.858389 250.469124 
L 383.568793 249.411214 
L 384.279196 248.108636 
L 384.9896 247.054623 
L 385.700004 246.408236 
L 386.410408 246.394632 
L 387.120812 247.652335 
L 387.831215 250.328719 
L 389.252023 257.901641 
L 390.672831 267.604352 
L 392.804042 282.344662 
L 393.514446 286.757442 
L 394.22485 289.960436 
L 394.935254 291.55339 
L 395.645657 291.916457 
L 396.356061 291.734903 
L 397.066465 291.830572 
L 397.776869 293.085804 
L 398.487273 295.488 
L 398.487273 295.488 
" clip-path="url(#pe731d2cd7f)" style="fill: none; stroke: #1f77b4; stroke-width: 1.5; stroke-linecap: square"/>
   </g>
   <g id="patch_3">
    <path d="M 57.6 307.584 
L 57.6 41.472 
" style="fill: none; stroke: #000000; stroke-width: 0.8; stroke-linejoin: miter; stroke-linecap: square"/>
   </g>
   <g id="patch_4">
    <path d="M 414.72 307.584 
L 414.72 41.472 
" style="fill: none; stroke: #000000; stroke-width: 0.8; stroke-linejoin: miter; stroke-linecap: square"/>
   </g>
   <g id="patch_5">
    <path d="M 57.6 307.584 
L 414.72 307.584 
" style="fill: none; stroke: #000000; stroke-width: 0.8; stroke-linejoin: miter; stroke-linecap: square"/>
   </g>
   <g id="patch_6">
    <path d="M 57.6 41.472 
L 414.72 41.472 
" style="fill: none; stroke: #000000; stroke-width: 0.8; stroke-linejoin: miter; stroke-linecap: square"/>
   </g>
   <g id="text_13">
    <!-- Conjugate Gradients Norm vs Number of Iteration -->
    <g transform="translate(86.435625 35.472) scale(0.12 -0.12)">
     <defs>
      <path id="DejaVuSans-43" d="M 4122 4306 
L 4122 3641 
Q 3803 3938 3442 4084 
Q 3081 4231 2675 4231 
Q 1875 4231 1450 3742 
Q 1025 3253 1025 2328 
Q 1025 1406 1450 917 
Q 1875 428 2675 428 
Q 3081 428 3442 575 
Q 3803 722 4122 1019 
L 4122 359 
Q 3791 134 3420 21 
Q 3050 -91 2638 -91 
Q 1578 -91 968 557 
Q 359 1206 359 2328 
Q 359 3453 968 4101 
Q 1578 4750 2638 4750 
Q 3056 4750 3426 4639 
Q 3797 4528 4122 4306 
z
" transform="scale(0.015625)"/>
      <path id="DejaVuSans-6a" d="M 603 3500 
L 1178 3500 
L 1178 -63 
Q 1178 -731 923 -1031 
Q 669 -1331 103 -1331 
L -116 -1331 
L -116 -844 
L 38 -844 
Q 366 -844 484 -692 
Q 603 -541 603 -63 
L 603 3500 
z
M 603 4863 
L 1178 4863 
L 1178 4134 
L 603 4134 
L 603 4863 
z
" transform="scale(0.015625)"/>
      <path id="DejaVuSans-67" d="M 2906 1791 
Q 2906 2416 2648 2759 
Q 2391 3103 1925 3103 
Q 1463 3103 1205 2759 
Q 947 2416 947 1791 
Q 947 1169 1205 825 
Q 1463 481 1925 481 
Q 2391 481 2648 825 
Q 2906 1169 2906 1791 
z
M 3481 434 
Q 3481 -459 3084 -895 
Q 2688 -1331 1869 -1331 
Q 1566 -1331 1297 -1286 
Q 1028 -1241 775 -1147 
L 775 -588 
Q 1028 -725 1275 -790 
Q 1522 -856 1778 -856 
Q 2344 -856 2625 -561 
Q 2906 -266 2906 331 
L 2906 616 
Q 2728 306 2450 153 
Q 2172 0 1784 0 
Q 1141 0 747 490 
Q 353 981 353 1791 
Q 353 2603 747 3093 
Q 1141 3584 1784 3584 
Q 2172 3584 2450 3431 
Q 2728 3278 2906 2969 
L 2906 3500 
L 3481 3500 
L 3481 434 
z
" transform="scale(0.015625)"/>
      <path id="DejaVuSans-47" d="M 3809 666 
L 3809 1919 
L 2778 1919 
L 2778 2438 
L 4434 2438 
L 4434 434 
Q 4069 175 3628 42 
Q 3188 -91 2688 -91 
Q 1594 -91 976 548 
Q 359 1188 359 2328 
Q 359 3472 976 4111 
Q 1594 4750 2688 4750 
Q 3144 4750 3555 4637 
Q 3966 4525 4313 4306 
L 4313 3634 
Q 3963 3931 3569 4081 
Q 3175 4231 2741 4231 
Q 1884 4231 1454 3753 
Q 1025 3275 1025 2328 
Q 1025 1384 1454 906 
Q 1884 428 2741 428 
Q 3075 428 3337 486 
Q 3600 544 3809 666 
z
" transform="scale(0.015625)"/>
      <path id="DejaVuSans-64" d="M 2906 2969 
L 2906 4863 
L 3481 4863 
L 3481 0 
L 2906 0 
L 2906 525 
Q 2725 213 2448 61 
Q 2172 -91 1784 -91 
Q 1150 -91 751 415 
Q 353 922 353 1747 
Q 353 2572 751 3078 
Q 1150 3584 1784 3584 
Q 2172 3584 2448 3432 
Q 2725 3281 2906 2969 
z
M 947 1747 
Q 947 1113 1208 752 
Q 1469 391 1925 391 
Q 2381 391 2643 752 
Q 2906 1113 2906 1747 
Q 2906 2381 2643 2742 
Q 2381 3103 1925 3103 
Q 1469 3103 1208 2742 
Q 947 2381 947 1747 
z
" transform="scale(0.015625)"/>
      <path id="DejaVuSans-73" d="M 2834 3397 
L 2834 2853 
Q 2591 2978 2328 3040 
Q 2066 3103 1784 3103 
Q 1356 3103 1142 2972 
Q 928 2841 928 2578 
Q 928 2378 1081 2264 
Q 1234 2150 1697 2047 
L 1894 2003 
Q 2506 1872 2764 1633 
Q 3022 1394 3022 966 
Q 3022 478 2636 193 
Q 2250 -91 1575 -91 
Q 1294 -91 989 -36 
Q 684 19 347 128 
L 347 722 
Q 666 556 975 473 
Q 1284 391 1588 391 
Q 1994 391 2212 530 
Q 2431 669 2431 922 
Q 2431 1156 2273 1281 
Q 2116 1406 1581 1522 
L 1381 1569 
Q 847 1681 609 1914 
Q 372 2147 372 2553 
Q 372 3047 722 3315 
Q 1072 3584 1716 3584 
Q 2034 3584 2315 3537 
Q 2597 3491 2834 3397 
z
" transform="scale(0.015625)"/>
      <path id="DejaVuSans-4e" d="M 628 4666 
L 1478 4666 
L 3547 763 
L 3547 4666 
L 4159 4666 
L 4159 0 
L 3309 0 
L 1241 3903 
L 1241 0 
L 628 0 
L 628 4666 
z
" transform="scale(0.015625)"/>
      <path id="DejaVuSans-76" d="M 191 3500 
L 800 3500 
L 1894 563 
L 2988 3500 
L 3597 3500 
L 2284 0 
L 1503 0 
L 191 3500 
z
" transform="scale(0.015625)"/>
      <path id="DejaVuSans-49" d="M 628 4666 
L 1259 4666 
L 1259 0 
L 628 0 
L 628 4666 
z
" transform="scale(0.015625)"/>
     </defs>
     <use xlink:href="#DejaVuSans-43"/>
     <use xlink:href="#DejaVuSans-6f" x="69.824219"/>
     <use xlink:href="#DejaVuSans-6e" x="131.005859"/>
     <use xlink:href="#DejaVuSans-6a" x="194.384766"/>
     <use xlink:href="#DejaVuSans-75" x="222.167969"/>
     <use xlink:href="#DejaVuSans-67" x="285.546875"/>
     <use xlink:href="#DejaVuSans-61" x="349.023438"/>
     <use xlink:href="#DejaVuSans-74" x="410.302734"/>
     <use xlink:href="#DejaVuSans-65" x="449.511719"/>
     <use xlink:href="#DejaVuSans-20" x="511.035156"/>
     <use xlink:href="#DejaVuSans-47" x="542.822266"/>
     <use xlink:href="#DejaVuSans-72" x="620.3125"/>
     <use xlink:href="#DejaVuSans-61" x="661.425781"/>
     <use xlink:href="#DejaVuSans-64" x="722.705078"/>
     <use xlink:href="#DejaVuSans-69" x="786.181641"/>
     <use xlink:href="#DejaVuSans-65" x="813.964844"/>
     <use xlink:href="#DejaVuSans-6e" x="875.488281"/>
     <use xlink:href="#DejaVuSans-74" x="938.867188"/>
     <use xlink:href="#DejaVuSans-73" x="978.076172"/>
     <use xlink:href="#DejaVuSans-20" x="1030.175781"/>
     <use xlink:href="#DejaVuSans-4e" x="1061.962891"/>
     <use xlink:href="#DejaVuSans-6f" x="1136.767578"/>
     <use xlink:href="#DejaVuSans-72" x="1197.949219"/>
     <use xlink:href="#DejaVuSans-6d" x="1237.3125"/>
     <use xlink:href="#DejaVuSans-20" x="1334.724609"/>
     <use xlink:href="#DejaVuSans-76" x="1366.511719"/>
     <use xlink:href="#DejaVuSans-73" x="1425.691406"/>
     <use xlink:href="#DejaVuSans-20" x="1477.791016"/>
     <use xlink:href="#DejaVuSans-4e" x="1509.578125"/>
     <use xlink:href="#DejaVuSans-75" x="1584.382812"/>
     <use xlink:href="#DejaVuSans-6d" x="1647.761719"/>
     <use xlink:href="#DejaVuSans-62" x="1745.173828"/>
     <use xlink:href="#DejaVuSans-65" x="1808.650391"/>
     <use xlink:href="#DejaVuSans-72" x="1870.173828"/>
     <use xlink:href="#DejaVuSans-20" x="1911.287109"/>
     <use xlink:href="#DejaVuSans-6f" x="1943.074219"/>
     <use xlink:href="#DejaVuSans-66" x="2004.255859"/>
     <use xlink:href="#DejaVuSans-20" x="2039.460938"/>
     <use xlink:href="#DejaVuSans-49" x="2071.248047"/>
     <use xlink:href="#DejaVuSans-74" x="2100.740234"/>
     <use xlink:href="#DejaVuSans-65" x="2139.949219"/>
     <use xlink:href="#DejaVuSans-72" x="2201.472656"/>
     <use xlink:href="#DejaVuSans-61" x="2242.585938"/>
     <use xlink:href="#DejaVuSans-74" x="2303.865234"/>
     <use xlink:href="#DejaVuSans-69" x="2343.074219"/>
     <use xlink:href="#DejaVuSans-6f" x="2370.857422"/>
     <use xlink:href="#DejaVuSans-6e" x="2432.039062"/>
    </g>
   </g>
  </g>
 </g>
 <defs>
  <clipPath id="pe731d2cd7f">
   <rect x="57.6" y="41.472" width="357.12" height="266.112"/>
  </clipPath>
 </defs>
</svg>
